<?xml version="1.0" encoding="UTF-8"?>
<svg version="1.1" xmlns="http://www.w3.org/2000/svg" width="500" height="500">
<path d="M0 0 C165 0 330 0 500 0 C500 165 500 330 500 500 C335 500 170 500 0 500 C0 335 0 170 0 0 Z " fill="#02A569" transform="translate(0,0)"/>
<path d="M0 0 C16.5 0 33 0 50 0 C50 165 50 330 50 500 C-32.17 500 -114.34 500 -199 500 C-199 473.27 -199 446.54 -199 419 C-195 424 -195 424 -193.7890625 425.7734375 C-189.25380341 432.01322349 -182.28167184 435.78312327 -175 438 C-164.19862835 439.60341324 -156.06965385 437.38499926 -146.75 432.1875 C-138.68929821 425.77557812 -135.11619027 418.01872158 -133 408 C-132.90053655 406.14585799 -132.85395144 404.28859174 -132.84178162 402.43182373 C-132.8319928 401.29882843 -132.82220398 400.16583313 -132.81211853 398.99850464 C-132.80636307 397.75988678 -132.8006076 396.52126892 -132.79467773 395.24511719 C-132.78477814 393.93755463 -132.77487854 392.62999207 -132.76467896 391.2828064 C-132.73766724 387.70053236 -132.7166375 384.1182452 -132.69667697 380.53592587 C-132.67479436 376.79095512 -132.64741681 373.04602466 -132.62062073 369.30108643 C-132.57072459 362.21096504 -132.52577435 355.12082125 -132.48259836 348.0306561 C-132.43319966 339.95813898 -132.3782913 331.88566227 -132.32291877 323.81318426 C-132.209146 307.20882678 -132.10229673 290.60443223 -132 274 C-129.89422482 276.05378073 -128.04024754 277.94117667 -126.375 280.375 C-120.78048605 286.55841015 -112.72191138 290.60360252 -104.40625 291.1796875 C-93.77830617 291.44246633 -84.18033856 289.17306743 -76.25 281.75 C-67.8004244 272.74225198 -66.70299206 262.30161 -66.68115234 250.45532227 C-66.67110672 249.20584305 -66.6610611 247.95636383 -66.65071106 246.66902161 C-66.62520053 243.26041785 -66.60829609 239.85197895 -66.59528303 236.44331861 C-66.5796019 232.8745132 -66.55282769 229.30579103 -66.5272522 225.73704529 C-66.4805523 218.98702648 -66.44376581 212.23699185 -66.41057932 205.48689455 C-66.37229565 197.79879792 -66.32290194 190.11078507 -66.27259517 182.42275918 C-66.16940612 166.61523343 -66.08010357 150.80766061 -66 135 C-65.53609863 135.6194751 -65.07219727 136.2389502 -64.59423828 136.87719727 C-57.96651099 145.70232572 -51.18093811 151.8422751 -40 154 C-29.70689595 154.97697259 -20.14082459 152.46527026 -12 146 C-4.98845966 139.83443283 -1.73508533 132.12666523 -0.62775421 122.89746857 C-0.47362252 119.61604939 -0.43954305 116.35626727 -0.45410156 113.07128906 C-0.43859505 111.22523575 -0.43859505 111.22523575 -0.42277527 109.34188843 C-0.39854794 106.00772409 -0.39150398 102.67439921 -0.39249516 99.3402071 C-0.38934057 95.84079696 -0.36367017 92.34154877 -0.34051514 88.84222412 C-0.30014463 82.23400626 -0.27965937 75.62588659 -0.26654124 69.01756454 C-0.25060649 61.48650774 -0.21216411 53.95561655 -0.17194796 46.42465639 C-0.08980866 30.94979498 -0.03852487 15.4750408 0 0 Z " fill="#000000" transform="translate(450,0)"/>
<path d="M0 0 C16.5 0 33 0 50 0 C50.0825 3.8775 50.165 7.755 50.25 11.75 C50.72839308 25.14930842 51.74831576 34.85353703 61.48828125 44.8671875 C69.84301103 51.96156147 78.35543168 53.56336155 89 53 C98.3390435 51.8284354 105.60004221 47.15212243 111.4921875 39.96484375 C113.00965235 37.98742193 114.50592565 35.99512638 116 34 C116.00059709 34.59811499 116.00119418 35.19622998 116.00180936 35.81246966 C116.03773575 71.29440276 116.09442448 106.77624393 116.17792095 142.25809775 C116.18793791 146.52240662 116.19778212 150.78671587 116.20751953 155.05102539 C116.2094609 155.89994057 116.21140228 156.74885574 116.21340248 157.62349562 C116.2443884 171.35284483 116.26139361 185.08217735 116.27319422 198.81155493 C116.28562346 212.90856991 116.3131648 227.00549753 116.35461307 241.10245734 C116.3796978 249.79476984 116.39312096 258.48693737 116.39142957 267.17928658 C116.39139972 273.14721679 116.40610393 279.11499979 116.43216428 285.08287259 C116.44675185 288.52145266 116.4550639 291.95973087 116.44580269 295.39833641 C116.43913929 299.13820665 116.4571415 302.87720645 116.48101807 306.61698914 C116.46937744 308.22356912 116.46937744 308.22356912 116.45750165 309.86260527 C116.58107172 320.85835448 119.04477376 331.98991013 127 340 C135.47815156 347.56299467 143.58459059 349.85239313 154.69140625 349.4765625 C163.52763323 348.7793244 170.78523051 344.12064178 176.66796875 337.6796875 C178.33918898 335.57228369 179.71310612 333.35930545 181 331 C181.33 331 181.66 331 182 331 C182 386.77 182 442.54 182 500 C121.94 500 61.88 500 0 500 C0 335 0 170 0 0 Z " fill="#000000" transform="translate(0,0)"/>
<path d="M0 0 C65.67 0 131.34 0 199 0 C199.0825 20.5425 199.165 41.085 199.25 62.25 C199.28641602 68.71883789 199.32283203 75.18767578 199.36035156 81.85253906 C199.37841797 89.79638672 199.37841797 89.79638672 199.3817749 93.52386475 C199.38788851 96.10865706 199.40037116 98.6926473 199.42230225 101.27728271 C199.45521192 105.20867623 199.45561754 109.13975246 199.45410156 113.07128906 C199.468494 114.20852543 199.48288643 115.3457618 199.497715 116.51745987 C199.43905416 127.95680634 196.70115588 137.51338113 188.640625 145.80078125 C179.88059698 153.09648506 170.21137904 155.88124377 159 155 C148.51462689 153.133825 141.26986055 147.41766745 135 139 C134.67 138.34 134.34 137.68 134 137 C133.99853344 137.63830875 133.99706688 138.27661751 133.99555588 138.93426895 C133.95840289 154.51077158 133.89927651 170.0870156 133.81609726 185.66333389 C133.77639374 193.19613218 133.74395738 200.72882731 133.72900391 208.26171875 C133.71594206 214.83219312 133.68886292 221.40243969 133.64538693 227.97278571 C133.62287309 231.44744165 133.60708319 234.9218177 133.60811615 238.39655304 C133.60900917 242.28836393 133.57858785 246.17960892 133.54589844 250.07128906 C133.55344398 251.77386368 133.55344398 251.77386368 133.56114197 253.51083374 C133.40868725 265.30894169 130.53623695 274.45309532 122.2421875 282.9375 C114.21884921 290.31785299 105.69933024 292.41951262 94.93359375 292.2734375 C86.02742748 291.44330216 78.27924161 287.29167575 72 281 C70.64868518 279.01210512 69.31343436 277.01312393 68 275 C67.99853344 275.67346309 67.99706688 276.34692617 67.99555588 277.04079723 C67.95839856 293.47719508 67.89926644 309.91335512 67.81609726 326.34958172 C67.7763983 334.29824317 67.74395963 342.24680693 67.72900391 350.19555664 C67.71593971 357.12897239 67.68885458 364.06217236 67.64538693 370.99546653 C67.62287843 374.66185815 67.60708287 378.32798469 67.60811615 381.99445152 C67.60900959 386.10166393 67.57858024 390.20810284 67.54589844 394.31518555 C67.55344398 396.11055 67.55344398 396.11055 67.56114197 397.94218445 C67.3947528 411.53948557 63.92687582 422.22705475 54.1875 431.75 C45.1148579 438.15421795 35.01468831 440.67404429 24 439 C14.06311123 436.14602447 6.60205929 430.17928393 1.43981951 421.32353151 C-0.2090323 417.51749129 -0.37286173 414.87081814 -0.36914349 410.73365211 C-0.37433579 409.66465722 -0.37433579 409.66465722 -0.37963298 408.57406646 C-0.38757464 406.18569054 -0.37411478 403.79792119 -0.36076355 401.40957642 C-0.36207183 399.68023009 -0.36469866 397.95088434 -0.36853105 396.22154176 C-0.37524355 391.4691639 -0.36323278 386.71698862 -0.34819686 381.96463656 C-0.33525183 376.83994982 -0.33962488 371.71527467 -0.34190369 366.59057617 C-0.34347739 357.71159784 -0.33405802 348.83268561 -0.31719017 339.95372391 C-0.29281791 327.11621654 -0.28499671 314.27874117 -0.2812262 301.44121318 C-0.27465893 280.61362269 -0.25469029 259.78606744 -0.22631836 238.95849609 C-0.19878492 218.72542494 -0.17758223 198.49236341 -0.16479492 178.25927734 C-0.16399093 176.99956906 -0.16318694 175.73986079 -0.16235858 174.44197953 C-0.15612038 164.59035858 -0.15024959 154.73873743 -0.14449489 144.88711619 C-0.11618947 96.59137846 -0.0558356 48.29572891 0 0 Z " fill="#F0B037" transform="translate(251,0)"/>
<path d="M0 0 C21.78 0 43.56 0 66 0 C66.09042852 52.29911094 66.1620401 104.59820312 66.20426132 156.89737673 C66.20926414 163.07196548 66.21444143 169.24655407 66.21972656 175.42114258 C66.2207758 176.65039045 66.22182505 177.87963832 66.22290608 179.14613613 C66.24031065 199.04916441 66.27184865 218.95214647 66.30861118 238.85514734 C66.34601911 259.27791169 66.36823555 279.70065183 66.37635398 300.12344903 C66.38184204 312.72510314 66.39917487 325.3266266 66.43166587 337.9282405 C66.45281189 346.56998779 66.45919982 355.21166755 66.45400551 363.85343883 C66.4514439 368.8390722 66.45536703 373.82447728 66.4768219 378.81007004 C66.49633654 383.37822729 66.49723815 387.94600347 66.48359558 392.51417854 C66.48191031 394.16309243 66.48694279 395.81203044 66.49953273 397.46089713 C66.59540955 410.79763418 64.95222578 420.97509529 55.37109375 430.90234375 C52.1611679 433.74209693 49.02033662 435.56916453 45 437 C44.07574219 437.34933594 43.15148437 437.69867188 42.19921875 438.05859375 C33.38004051 440.65373655 24.66614648 440.06483784 16.5 436 C8.54836824 431.55247715 3.61854061 426.35266753 0 418 C-0.37259549 414.57458079 -0.37259549 414.57458079 -0.36914349 410.73365211 C-0.37433579 409.66465722 -0.37433579 409.66465722 -0.37963298 408.57406646 C-0.38757464 406.18569054 -0.37411478 403.79792119 -0.36076355 401.40957642 C-0.36207183 399.68023009 -0.36469866 397.95088434 -0.36853105 396.22154176 C-0.37524355 391.4691639 -0.36323278 386.71698862 -0.34819686 381.96463656 C-0.33525183 376.83994982 -0.33962488 371.71527467 -0.34190369 366.59057617 C-0.34347739 357.71159784 -0.33405802 348.83268561 -0.31719017 339.95372391 C-0.29281791 327.11621654 -0.28499671 314.27874117 -0.2812262 301.44121318 C-0.27465893 280.61362269 -0.25469029 259.78606744 -0.22631836 238.95849609 C-0.19878492 218.72542497 -0.17754783 198.49236342 -0.16479492 178.25927734 C-0.16400675 177.01228953 -0.16321858 175.76530172 -0.16240653 174.4805264 C-0.15849144 168.22480849 -0.15470031 161.9690905 -0.15097082 155.71337247 C-0.11986634 103.80888933 -0.06619789 51.90444925 0 0 Z " fill="#F1E75D" transform="translate(251,0)"/>
<path d="M0 0 C44.55 0 89.1 0 135 0 C135.11027675 40.81664715 135.20257846 81.63315353 135.25532665 122.44990708 C135.26158 127.27129248 135.26805163 132.09267757 135.2746582 136.9140625 C135.27662553 138.35380785 135.27662553 138.35380785 135.2786326 139.82263896 C135.30037506 155.3536445 135.33979019 170.88455727 135.38576398 186.41550782 C135.43256091 202.35777493 135.46030224 218.29999353 135.47044247 234.2423265 C135.47729492 244.07557677 135.49891906 253.90856482 135.53958233 263.74173436 C135.56606066 270.48940397 135.57398949 277.23693848 135.56750689 283.98465624 C135.56431188 287.87483447 135.5691269 291.76455525 135.59602737 295.65465164 C135.62052245 299.22313651 135.6214841 302.79086029 135.60449447 306.35938165 C135.60141168 308.24739495 135.62283098 310.1354005 135.64540654 312.02328134 C135.54928992 323.0833844 132.43035969 332.34057063 124.6796875 340.390625 C116.75264934 347.98583365 109.4367898 350.68144086 98.45458984 350.6105957 C89.6257813 350.21671297 82.59365726 346.63783127 76.0625 340.75 C67.39636121 331.17497349 65.69926097 319.6985904 65.7215271 307.29418945 C65.7157347 306.13170874 65.7099423 304.96922802 65.70397437 303.77152061 C65.68996008 300.56291605 65.68474784 297.35443924 65.68332577 294.14580894 C65.67961859 290.67895271 65.66445659 287.21214388 65.65071106 283.74531555 C65.62847569 277.74478659 65.61344006 271.74427458 65.60334396 265.74371338 C65.58873636 257.06799766 65.56319373 248.39234101 65.53501268 239.71666002 C65.48958246 225.63973563 65.45295209 211.56280271 65.421875 197.48583984 C65.391674 183.81427515 65.35731662 170.14273128 65.31738281 156.47119141 C65.31492126 155.62797345 65.31245972 154.78475549 65.30992357 153.91598547 C65.29754867 149.68565817 65.2850922 145.45533113 65.27259517 141.2250042 C65.16908384 106.15003139 65.07986198 71.07503432 65 36 C64.37834961 36.9492334 63.75669922 37.8984668 63.11621094 38.87646484 C58.10076317 46.27928426 50.82535403 51.44657226 42.1875 53.75 C41.135625 53.8325 40.08375 53.915 39 54 C38.19820312 54.06316406 37.39640625 54.12632813 36.5703125 54.19140625 C26.62858752 54.62794092 19.10101467 52.17974956 11.5625 45.625 C4.68196983 38.92954738 2.89347533 34.64491776 0 25 C0 16.75 0 8.5 0 0 Z " fill="#0367BE" transform="translate(50,0)"/>
<path d="M0 0 C21.78 0 43.56 0 66 0 C66.16065467 31.006352 66.16065467 31.006352 66.20101547 46.37466431 C66.22313992 54.67044283 66.25118272 62.96605963 66.30175781 71.26171875 C66.34179516 77.83207564 66.36747274 84.40231021 66.37635398 90.97278571 C66.38154039 94.44752899 66.39361308 97.92192255 66.42292023 101.39655304 C66.45547436 105.28819525 66.45594865 109.17950438 66.45410156 113.07128906 C66.46848267 114.20633881 66.48286377 115.34138855 66.49768066 116.51083374 C66.43924616 127.95275984 63.70329289 137.51118397 55.640625 145.80078125 C46.88059698 153.09648506 37.21137904 155.88124377 26 155 C15.64479402 153.156992 8.07261374 147.47071599 2 139 C0.00812059 135.70427465 -0.24762481 133.22214846 -0.24050903 129.39385986 C-0.24325836 128.25245041 -0.24600769 127.11104095 -0.24884033 125.93504333 C-0.24164978 124.68707474 -0.23445923 123.43910614 -0.22705078 122.15332031 C-0.22734283 120.83600418 -0.22763489 119.51868805 -0.22793579 118.16145325 C-0.2285096 114.55224648 -0.21675074 110.94317265 -0.20278788 107.33399677 C-0.19028524 103.56102993 -0.18911039 99.78806004 -0.18673706 96.01507568 C-0.18052092 88.8717789 -0.16410829 81.72854333 -0.14403808 74.5852735 C-0.11750325 64.93159982 -0.10670752 55.2779094 -0.09503365 45.62420845 C-0.07622779 30.41609311 -0.03638303 15.20810696 0 0 Z " fill="#F10418" transform="translate(384,0)"/>
<path d="M0 0 C22.77 0 45.54 0 69 0 C69 33.58798283 69 33.58798283 59.1796875 43.9140625 C53.33845601 49.29715819 47.06855537 53.36717213 39 54 C38.19820312 54.06316406 37.39640625 54.12632813 36.5703125 54.19140625 C26.62858752 54.62794092 19.10101467 52.17974956 11.5625 45.625 C4.68196983 38.92954738 2.89347533 34.64491776 0 25 C0 16.75 0 8.5 0 0 Z " fill="#9604BE" transform="translate(50,0)"/>
</svg>
